<?xml version="1.0" encoding="utf-8"?><svg xmlns="http://www.w3.org/2000/svg" xmlns:xlink="http://www.w3.org/1999/xlink"><symbol fill="none" viewBox="0 0 20 20" id="arrow-down" xmlns="http://www.w3.org/2000/svg"><path d="M10 14a.828.828 0 01-.594-.252l-5.16-5.28a.874.874 0 010-1.216.827.827 0 011.189 0L10 11.924l4.565-4.672a.827.827 0 011.189 0 .874.874 0 010 1.216l-5.16 5.28A.828.828 0 0110 14z" fill="#292223"/></symbol><symbol fill="none" viewBox="0 0 20 20" id="arrow-left" xmlns="http://www.w3.org/2000/svg"><path d="M6 10c0-.215.084-.43.252-.594l5.28-5.16a.874.874 0 011.216 0 .827.827 0 010 1.189L8.076 10l4.672 4.565a.827.827 0 010 1.189.874.874 0 01-1.216 0l-5.28-5.16A.828.828 0 016 10z" fill="#292223"/></symbol><symbol fill="none" viewBox="0 0 20 20" id="arrow-right" xmlns="http://www.w3.org/2000/svg"><path d="M14 10c0 .215-.084.43-.252.594l-5.28 5.16a.874.874 0 01-1.216 0 .827.827 0 010-1.188L11.924 10 7.252 5.435a.827.827 0 010-1.188.874.874 0 011.216 0l5.28 5.16c.168.163.252.378.252.593z" fill="#292223"/></symbol><symbol fill="none" viewBox="0 0 38 34" id="bank" xmlns="http://www.w3.org/2000/svg"><path d="M31.4 24.3L9.5 26.4c-.9.1-1.7-.6-1.8-1.5l-1.3-14C6.3 9.9 7 9.1 7.9 9l21.8-2c.9-.1 1.7.6 1.8 1.5l1.3 14c.2.9-.5 1.7-1.4 1.8z" stroke="#292223" stroke-width="1.8" stroke-miterlimit="10" stroke-linecap="round"/><path d="M10.4 20.1l2-.1M14.4 19.8l2.1-.2M18.5 19.4l2-.2M22.5 19l2-.2M10.602 22.7l8.6-.8M28.102 21l2.2-.2M13.002 15.5l-1.9.2c-.6.1-1-.4-1.1-.9l-.1-1.1c-.1-.6.4-1 .9-1.1l1.9-.2c.6-.1 1 .4 1.1.9l.1 1.1c.1.6-.3 1.1-.9 1.1z" stroke="#292223" stroke-width="1.4" stroke-miterlimit="10" stroke-linecap="round"/></symbol><symbol fill="none" viewBox="0 0 35 35" id="basket" xmlns="http://www.w3.org/2000/svg"><path d="M28.987 26.09l-1.24-15.756a1.959 1.959 0 00-1.936-1.81h-2.448v-.112C23.363 5.428 20.958 3 18 3c-2.957 0-5.363 2.428-5.363 5.412v.111h-2.448c-1.009 0-1.86.796-1.936 1.809l-1.24 15.76a4.598 4.598 0 001.19 3.447A4.513 4.513 0 0011.518 31h12.964a4.512 4.512 0 003.315-1.461 4.6 4.6 0 001.19-3.449zM14.262 8.412c0-2.08 1.677-3.772 3.738-3.772s3.738 1.692 3.738 3.772v.111h-7.476v-.11zm12.343 20.012a2.851 2.851 0 01-2.123.936H11.518a2.851 2.851 0 01-2.122-.936 2.904 2.904 0 01-.762-2.204l1.239-15.76a.32.32 0 01.316-.296h2.448v2.02c0 .452.364.82.812.82a.816.816 0 00.813-.82v-2.02h7.476v2.02c0 .452.364.82.813.82a.816.816 0 00.813-.82v-2.02h2.447a.32.32 0 01.316.297l1.24 15.757a2.906 2.906 0 01-.762 2.206z" fill="#292223" stroke="#292223" stroke-width=".4"/></symbol><symbol fill="none" viewBox="0 0 15 15" id="checked" xmlns="http://www.w3.org/2000/svg"><path d="M12.66 3.356a1.12 1.12 0 00-1.636 0L6.053 8.568 3.976 6.391a1.12 1.12 0 00-1.637 0 1.256 1.256 0 000 1.717l2.895 3.036c.226.238.522.356.819.356.296 0 .592-.118.818-.356l5.79-6.071a1.256 1.256 0 000-1.717z" fill="#292223"/></symbol><symbol fill="none" viewBox="0 0 20 20" id="clock" xmlns="http://www.w3.org/2000/svg"><path d="M10 1c-4.963 0-9 4.037-9 9s4.037 9 9 9 9-4.037 9-9-4.037-9-9-9zm4.28 13.655a.748.748 0 01-1.06 0l-3.75-3.75a.747.747 0 01-.22-.53V5.5a.75.75 0 111.5 0v4.565l3.53 3.53a.75.75 0 010 1.06z" fill="#fff"/></symbol><symbol fill="none" viewBox="0 0 35 35" id="close" xmlns="http://www.w3.org/2000/svg"><path d="M28.8 8.6a1.697 1.697 0 00-2.4-2.4l-6.986 6.986a2 2 0 01-2.828 0L9.6 6.2a1.697 1.697 0 00-2.4 2.4l6.986 6.986a2 2 0 010 2.828L7.2 25.4a1.697 1.697 0 002.4 2.4l6.986-6.986a2 2 0 012.828 0L26.4 27.8a1.697 1.697 0 002.4-2.4l-6.986-6.986a2 2 0 010-2.828L28.8 8.6z" fill="#292223"/></symbol><symbol fill="none" viewBox="0 0 20 20" id="close-small" xmlns="http://www.w3.org/2000/svg"><path d="M15 6l-1-1-4 4-4-4-1 1 4 4-4 4 1 1 4-4 4 4 1-1-4-4 4-4z" fill="#292223"/></symbol><symbol fill="none" viewBox="0 0 35 35" id="heart" xmlns="http://www.w3.org/2000/svg"><path d="M18 30c-.37 0-.727-.14-1.005-.392a305.944 305.944 0 00-2.957-2.638l-.004-.004c-2.62-2.316-4.881-4.316-6.455-6.287C5.819 18.477 5 16.39 5 14.108c0-2.216.733-4.261 2.063-5.758C8.408 6.834 10.255 6 12.263 6c1.501 0 2.876.492 4.085 1.463A8.54 8.54 0 0118 9.253c.488-.7 1.041-1.3 1.652-1.79C20.862 6.493 22.236 6 23.737 6c2.008 0 3.855.834 5.2 2.349C30.268 9.846 31 11.89 31 14.107c0 2.282-.82 4.37-2.579 6.572-1.573 1.97-3.835 3.97-6.454 6.286-.895.791-1.91 1.688-2.962 2.643A1.494 1.494 0 0118 30zM12.263 7.58a5.395 5.395 0 00-4.08 1.84c-1.07 1.204-1.66 2.869-1.66 4.687 0 1.919.687 3.635 2.228 5.564 1.49 1.865 3.705 3.824 6.27 6.092l.005.004c.897.793 1.914 1.692 2.972 2.652a357.665 357.665 0 012.981-2.656c2.565-2.269 4.78-4.227 6.27-6.092 1.54-1.93 2.228-3.645 2.228-5.564 0-1.818-.59-3.483-1.66-4.687a5.395 5.395 0 00-4.08-1.84c-1.156 0-2.217.381-3.154 1.133-.835.67-1.416 1.517-1.757 2.11a.947.947 0 01-.826.487.947.947 0 01-.826-.487c-.34-.593-.922-1.44-1.757-2.11-.937-.752-1.998-1.133-3.154-1.133z" fill="#292223" stroke="#292223" stroke-width=".6"/></symbol><symbol fill="none" viewBox="0 0 35 35" id="inst" xmlns="http://www.w3.org/2000/svg"><path d="M4.8 10.864V25.11a5.064 5.064 0 005.065 5.065h14.246a5.065 5.065 0 005.065-5.065V10.864A5.065 5.065 0 0024.11 5.8H9.865a5.065 5.065 0 00-5.064 5.064zm14.77 14.03a7.393 7.393 0 01-9.488-9.489 6.993 6.993 0 014.324-4.324 7.393 7.393 0 019.489 9.488 6.993 6.993 0 01-4.325 4.325zm5.876-14.277a.953.953 0 01-1.719.385.954.954 0 01-.038-1.013.94.94 0 01.575-.441.938.938 0 01.718.095.954.954 0 01.464.974z" fill="#F6F6F6"/><path d="M17 13.273A4.732 4.732 0 0012.274 18a4.733 4.733 0 004.728 4.727A4.732 4.732 0 0021.728 18a4.732 4.732 0 00-4.727-4.727z" fill="#F6F6F6"/><path d="M24.5 9c-.827 0-1.5.673-1.5 1.5s.673 1.5 1.5 1.5 1.5-.673 1.5-1.5S25.327 9 24.5 9z" fill="#292223"/></symbol><symbol fill="none" viewBox="0 0 35 35" id="marker" xmlns="http://www.w3.org/2000/svg"><path d="M18 5C12.486 5 8 9.442 8 14.902c0 2.161.69 4.214 1.995 5.937l7.389 9.854c.018.024.046.033.067.054a.749.749 0 001.165-.054c2.128-2.811 6.028-8.062 7.527-10.042l.001-.003.01-.012A9.766 9.766 0 0028 14.902C28 9.442 23.514 5 18 5zm0 15.244c-2.969 0-5.395-2.402-5.395-5.342 0-2.94 2.426-5.342 5.395-5.342 2.969 0 5.395 2.403 5.395 5.342 0 2.94-2.426 5.342-5.395 5.342z" fill="#F6F6F6"/></symbol><symbol fill="none" viewBox="0 0 20 20" id="minus" xmlns="http://www.w3.org/2000/svg"><path fill="#292223" d="M4 9h12v2H4z"/></symbol><symbol fill="none" viewBox="0 0 38 34" id="paper" xmlns="http://www.w3.org/2000/svg"><path d="M27.2 28.7H10V5h12.5l.1 4.9h4.6v18.8zM27.2 9.9L22.5 5" stroke="#333" stroke-width="1.8" stroke-miterlimit="10" stroke-linecap="round" stroke-linejoin="round"/><path d="M12.9 9.9H18M12.9 13h11.4M12.9 16.1h11.4M12.9 19.3h11.4M12.9 22.4h7.2" stroke="#333" stroke-width="1.2" stroke-miterlimit="10" stroke-linecap="round" stroke-linejoin="round"/></symbol><symbol fill="none" viewBox="0 0 38 34" id="paypall" xmlns="http://www.w3.org/2000/svg"><path d="M9 25.2l3.5-19.6h7.1c2.6 0 6.8 0 6.6 4.9-.2 4.9-3 6.7-6.2 7.2s-4.7.1-4.7.1-1.3 7.2-1.2 7.3c.1.2-5.1.1-5.1.1z" stroke="#292223" stroke-width="1.8" stroke-miterlimit="10" stroke-linecap="round" stroke-linejoin="round"/><path d="M26.201 11c1.5.4 2.7 1.5 2.6 4-.2 4.3-2.6 5.9-5.4 6.4-2.8.5-4.1.1-4.1.1l-1.1 6.4h-4.5l.5-2.7" stroke="#292223" stroke-width="1.8" stroke-miterlimit="10" stroke-linecap="round" stroke-linejoin="round"/></symbol><symbol fill="none" viewBox="0 0 35 35" id="phone" xmlns="http://www.w3.org/2000/svg"><path d="M24.872 21.616c-1.232-1.085-2.481-1.742-3.698-.659l-.726.655c-.532.476-1.52 2.696-5.34-1.83-3.82-4.522-1.547-5.226-1.014-5.697l.73-.656c1.21-1.086.753-2.453-.12-3.86l-.526-.852c-.877-1.404-1.832-2.326-3.045-1.242l-.655.59c-.537.403-2.035 1.71-2.399 4.196-.438 2.981.943 6.395 4.105 10.141 3.159 3.748 6.251 5.63 9.18 5.598a6.093 6.093 0 004.365-1.862l.658-.591c1.21-1.084.458-2.187-.774-3.274l-.741-.657z" fill="#292223"/></symbol><symbol fill="none" viewBox="0 0 20 20" id="plus" xmlns="http://www.w3.org/2000/svg"><path fill="#292223" d="M4 9h12v2H4z"/><path fill="#292223" d="M11 4v12H9V4z"/></symbol><symbol fill="none" viewBox="0 0 38 34" id="rub" xmlns="http://www.w3.org/2000/svg"><path d="M11.201 28V5.8h9.3c3.6 0 6.5 2.9 6.5 6.5s-2.9 6.5-6.5 6.5h-9.3M21.199 23.3h-14.4" stroke="#292223" stroke-width="2" stroke-miterlimit="10" stroke-linecap="round"/></symbol><symbol fill="none" viewBox="0 0 35 35" id="search" xmlns="http://www.w3.org/2000/svg"><path d="M16.917 23.033a8.075 8.075 0 004.957-1.697l5.562 5.561a1.03 1.03 0 001.461 0 1.032 1.032 0 000-1.46l-5.561-5.563a8.074 8.074 0 001.697-4.957c0-4.476-3.641-8.117-8.116-8.117-4.476 0-8.117 3.641-8.117 8.117 0 4.475 3.641 8.116 8.117 8.116zm0-2.066a6.056 6.056 0 01-6.05-6.05 6.056 6.056 0 016.05-6.05 6.056 6.056 0 016.05 6.05 6.056 6.056 0 01-6.05 6.05z" fill="#292223" stroke="#292223" stroke-width=".4"/></symbol><symbol fill="none" viewBox="0 0 18 18" id="star" xmlns="http://www.w3.org/2000/svg"><path d="M18.074 6.801a.97.97 0 00-.828-.685l-5.231-.493L9.947.606A.963.963 0 009.061 0a.961.961 0 00-.886.606L6.107 5.623l-5.232.493a.973.973 0 00-.828.685c-.12.38-.01.798.28 1.061l3.955 3.594-1.166 5.323c-.085.391.062.796.375 1.03a.936.936 0 001.059.05l4.51-2.796 4.51 2.795a.935.935 0 001.06-.048c.313-.235.46-.64.375-1.031l-1.166-5.323 3.954-3.594c.29-.263.4-.68.281-1.06z" fill="#DBDCE4"/></symbol></svg>