<svg width="145" height="64" viewBox="0 0 145 64" fill="none" xmlns="http://www.w3.org/2000/svg">
<path fill-rule="evenodd" clip-rule="evenodd" d="M140.532 37.8701C140.126 38.5406 139.669 39.2627 139.212 40.088C138.755 40.8616 138.298 41.6869 137.791 42.4606C137.283 43.2859 136.775 44.008 136.268 44.6785C135.76 45.349 135.303 45.8648 134.795 46.2774C134.338 46.6901 133.831 46.8964 133.424 46.8964C133.171 46.8964 132.917 46.7416 132.764 46.5353C132.561 46.329 132.46 46.0711 132.358 45.8132C132.257 45.5553 132.257 45.349 132.257 45.2459C132.257 44.7301 132.46 44.1111 132.764 43.389C133.069 42.6669 133.526 41.8932 134.034 41.068C134.541 40.2427 135.1 39.469 135.658 38.6437C136.217 37.8701 136.724 37.148 137.181 36.4774C137.334 36.3227 137.588 36.168 137.892 36.1164C138.146 36.0132 138.451 36.0132 138.806 36.0132C139.111 36.0132 139.314 36.0648 139.466 36.168C139.618 36.2711 139.771 36.4258 139.974 36.6837C140.075 37.0964 140.278 37.4058 140.532 37.8701ZM140.532 31.7837C139.974 32.0416 139.415 32.2995 138.806 32.5574C138.197 32.8153 137.588 33.0216 137.029 33.2795C136.471 33.5374 135.912 33.8469 135.455 34.1564C134.135 35.1364 133.018 36.3743 132.003 37.7669C130.987 39.1595 130.226 40.7069 129.617 42.3574C129.058 44.008 128.753 45.6585 128.753 47.3606C128.753 48.0827 128.906 48.7532 129.16 49.3722C129.414 49.9395 129.82 50.4037 130.327 50.7648C130.835 51.1258 131.444 51.2806 132.104 51.2806C132.714 51.2806 133.272 51.1774 133.831 50.9711C134.389 50.7648 134.897 50.5069 135.404 50.249C135.861 49.9911 136.268 49.7332 136.572 49.5269C136.877 49.3206 137.131 49.2174 137.232 49.2174C137.486 49.2174 137.689 49.3206 137.74 49.5785C137.791 49.8364 137.841 50.1458 137.892 50.5585C137.892 50.9711 137.994 51.4353 138.146 51.9511C138.298 52.4669 138.603 53.0343 139.111 53.6016C139.415 54.0143 139.72 54.3238 140.025 54.5816C140.329 54.8395 140.634 54.9427 140.938 54.9427C141.345 54.9427 141.7 54.788 141.954 54.4269C142.208 54.1174 142.461 53.7048 142.614 53.189C142.766 52.6732 142.918 52.0543 142.969 51.4353C143.071 50.8164 143.121 50.1974 143.223 49.5269C143.477 47.5153 143.731 45.4522 143.985 43.389C144.238 41.3259 144.543 39.2627 144.848 37.2511C144.898 37.0448 144.898 36.8385 144.949 36.5806C145 36.3743 145 36.168 145 35.9616C145 34.7237 144.645 33.7953 143.934 33.0732C143.121 32.4027 142.005 31.9385 140.532 31.7837ZM131.495 27.3995C131.241 26.9869 131.038 26.5743 130.886 26.1616C130.734 25.749 130.53 25.388 130.327 25.1301C130.124 24.8722 129.769 24.7174 129.312 24.7174C128.55 24.7174 127.84 24.9753 127.18 25.4395C126.52 25.9038 125.91 26.5227 125.301 27.2448C124.743 27.9669 124.184 28.7406 123.626 29.5143C123.067 30.288 122.56 31.0101 122.103 31.6806C121.747 32.0932 121.392 32.5059 120.986 32.9185C120.579 33.3311 120.173 33.6922 119.767 34.1048C119.666 33.5374 119.513 32.9185 119.361 32.2995C119.209 31.6806 119.006 31.1132 118.752 30.5459C118.498 29.9785 118.193 29.5659 117.889 29.2048C117.533 28.8437 117.127 28.689 116.67 28.689C115.959 28.689 115.299 28.9469 114.842 29.4627C114.335 29.9269 113.929 30.5974 113.624 31.4227C113.319 32.2479 113.065 33.1248 112.862 34.1564C112.659 35.1364 112.558 36.168 112.456 37.148C112.355 38.128 112.304 39.1079 112.202 39.9332C112.152 40.8101 112.101 41.5322 111.999 42.0995C111.745 44.008 111.492 45.8648 111.238 47.7732C110.984 49.6816 110.781 51.5901 110.628 53.4985C110.628 53.808 110.73 54.1174 110.882 54.4269C111.035 54.7364 111.238 55.0974 111.441 55.4069C111.644 55.7164 111.847 56.0259 111.999 56.3353C112.507 56.0774 112.964 55.768 113.37 55.5616C113.776 55.3037 114.182 54.9943 114.589 54.5816C114.944 54.169 115.299 53.5501 115.655 52.7248C116.162 51.4869 116.619 50.249 117.076 48.9595C117.533 47.7216 117.939 46.4837 118.396 45.1943C118.853 43.9564 119.361 42.7185 119.919 41.5322C120.224 40.8616 120.63 40.088 121.138 39.1595C121.646 38.2827 122.153 37.3027 122.712 36.3743C123.27 35.3943 123.829 34.5174 124.387 33.6406C124.946 32.8153 125.453 32.0932 125.86 31.5774C126.317 31.0616 126.621 30.8037 126.875 30.7522C127.078 30.7522 127.281 30.8553 127.484 31.0616C127.637 31.268 127.84 31.5259 128.043 31.7837C128.246 32.0416 128.398 32.2995 128.652 32.5058C128.855 32.7122 129.109 32.8153 129.363 32.8153C129.667 32.8153 129.921 32.6606 130.124 32.2995C130.327 31.9901 130.53 31.5258 130.683 30.9585C130.835 30.3911 130.987 29.8237 131.14 29.1532C131.19 28.7406 131.343 28.0701 131.495 27.3995ZM94.0774 45.5037C94.0774 47.4637 94.2805 49.1143 94.6866 50.5069C95.0928 51.8995 95.702 52.9311 96.4128 53.6532C97.1744 54.3753 98.0375 54.7364 99.0529 54.788C100.018 54.788 100.881 54.4269 101.744 53.808C102.607 53.189 103.419 52.3122 104.13 51.2806C104.841 50.1974 105.501 49.0111 106.008 47.6701C106.567 46.329 106.973 44.9364 107.278 43.4922C107.582 42.048 107.735 40.6553 107.735 39.2627C107.735 38.3859 107.684 37.4058 107.582 36.3743C107.481 35.3427 107.278 34.3627 106.973 33.4343C106.668 32.5059 106.211 31.6806 105.551 31.0101C105.298 31.268 105.095 31.4743 104.891 31.5774C104.739 31.7322 104.587 31.8869 104.485 32.0932C104.384 32.2995 104.333 32.5574 104.333 32.9185C104.333 33.4343 104.384 34.0016 104.536 34.5174C104.638 35.0332 104.739 35.549 104.891 36.0648C104.993 36.5806 105.044 37.0448 105.044 37.5606C105.044 38.8501 104.891 40.1911 104.587 41.5837C104.282 42.9764 103.876 44.3174 103.419 45.7101C102.911 47.1027 102.404 48.3922 101.845 49.6816C101.744 49.9395 101.541 50.1459 101.287 50.3522C101.033 50.5585 100.678 50.7648 100.322 50.9195C99.9667 51.1259 99.6621 51.2806 99.3575 51.4869C99.2052 51.1774 99.0529 50.8164 98.8498 50.4553C98.6467 50.0943 98.4944 49.7332 98.3421 49.3722C98.1898 49.0111 98.139 48.6501 98.0882 48.3406C98.0882 47.2574 98.1898 46.1743 98.3928 44.988C98.5959 43.8016 98.9006 42.6669 99.256 41.4806C99.6113 40.2943 100.068 39.2111 100.627 38.1279C101.134 37.0448 101.794 36.1164 102.454 35.2911C102.556 35.188 102.658 35.0332 102.708 34.8269C102.759 34.6206 102.81 34.4143 102.81 34.208C102.81 33.7953 102.658 33.4858 102.454 33.228C102.251 32.9701 101.947 32.7637 101.642 32.609C101.338 32.4543 101.033 32.4027 100.728 32.4027C100.018 32.4027 99.4083 32.6606 98.799 33.1248C98.1898 33.6406 97.6313 34.2595 97.1744 35.0848C96.6667 35.9101 96.2605 36.7869 95.8543 37.7669C95.4989 38.7469 95.1436 39.7269 94.8897 40.7069C94.6358 41.6869 94.382 42.6153 94.2297 43.4406C94.2297 44.2143 94.1281 44.9364 94.0774 45.5037ZM80.5217 50.3006C80.6233 51.1258 80.7756 51.8995 80.9786 52.5701C81.1817 53.2922 81.4356 53.8595 81.791 54.3238C82.1464 54.788 82.6541 55.0459 83.2633 55.0459C83.9233 55.0459 84.5326 54.788 85.1418 54.3753C85.7511 53.9627 86.3095 53.3953 86.868 52.6732C87.3757 52.0027 87.8326 51.229 88.2388 50.4038C88.645 49.5785 88.9496 48.7532 89.1527 47.9795C89.4065 47.2058 89.508 46.4837 89.508 45.8648C89.508 45.7101 89.4065 45.5038 89.2542 45.2974C89.1019 45.0911 88.8988 44.9364 88.7465 44.7816C88.5434 44.6269 88.4419 44.5753 88.3911 44.5753C87.9849 44.7301 87.6296 44.7816 87.3757 44.7816C87.0711 44.7816 86.868 44.6785 86.7664 44.5238C86.6649 44.369 86.6141 44.1627 86.6141 43.8532C86.6141 43.6469 86.6649 43.4406 86.7157 43.1827C86.7664 42.9248 86.8172 42.7185 86.868 42.5122C87.7311 37.0448 88.6957 31.5774 89.7619 26.1616C90.7773 20.7459 91.8435 15.2785 92.9097 9.81111C92.9097 9.14058 92.8589 8.52163 92.7574 7.95426C92.6558 7.3869 92.402 6.92269 92.0973 6.56164C91.7927 6.20059 91.3358 5.94268 90.7265 5.89111C90.2188 5.89111 89.7619 6.09743 89.4065 6.51006C89.0511 6.87111 88.7465 7.3869 88.4926 8.05743C88.2388 8.67638 88.0357 9.3469 87.8834 10.1206C87.7311 10.8427 87.5788 11.5648 87.4772 12.2869C87.3757 13.009 87.2234 13.628 87.1218 14.1953C86.3095 18.1669 85.4972 22.1385 84.6341 26.1616C83.8218 30.1332 83.0602 34.1564 82.3494 38.1795C81.4864 42.2027 80.9279 46.2258 80.5217 50.3006ZM65.5952 24.6143C65.4429 24.6143 65.2398 24.5627 65.0875 24.5627C64.9352 24.5111 64.7829 24.5111 64.6306 24.5111C64.4783 24.5111 64.2752 24.6143 64.0214 24.7174C63.7675 24.8722 63.5644 25.0269 63.3613 25.1816C63.1583 25.3364 62.9552 25.4395 62.8029 25.5427C63.3106 26.0585 63.869 26.4195 64.3767 26.6774C64.9352 26.9353 65.4429 27.0901 65.9506 27.2448C66.4583 27.3995 66.8137 27.6058 67.1691 27.8122C67.4737 28.0185 67.626 28.3795 67.626 28.8437C67.626 29.0501 67.6261 29.308 67.5753 29.5659C67.5245 29.8238 67.4737 30.1848 67.3722 30.4943C66.8645 33.1764 66.4583 35.6522 66.0522 37.8701C65.646 40.088 65.2906 42.2027 64.9352 44.1111C64.5798 46.0711 64.2244 47.928 63.9198 49.6816C63.5644 51.4353 63.2598 53.2406 62.9552 54.9943C62.5998 56.748 62.2952 58.6048 61.9398 60.4616C61.889 60.5648 61.889 60.668 61.889 60.7711C61.889 60.8743 61.889 60.9774 61.889 61.0806C61.889 61.4932 61.9398 61.9059 62.0921 62.3185C62.2444 62.7311 62.4982 63.0406 62.8536 63.2985C63.209 63.5564 63.7167 63.7111 64.3767 63.7111C64.6814 63.7111 64.986 63.5048 65.4429 63.1953C65.8491 62.8858 66.2552 62.4732 66.6614 61.9574C67.0676 61.4932 67.423 60.9774 67.7276 60.5132C68.0322 60.049 68.2353 59.6364 68.2861 59.3785C68.5907 58.1406 68.7938 57.0574 68.9461 56.2322C69.0984 55.3553 69.1999 54.6332 69.3015 53.9627C69.403 53.2922 69.4538 52.6732 69.5045 52.0027C69.5553 51.3322 69.6569 50.6101 69.7584 49.7332C69.9107 48.8564 70.063 47.8248 70.3169 46.5353C70.8754 43.6469 71.383 40.7585 71.84 37.8701C72.2969 34.9816 72.8046 32.0416 73.2616 29.1016C73.4139 28.3795 73.6677 27.7606 74.0231 27.2964C74.3785 26.8322 74.937 26.4195 75.7493 26.1616C77.4755 25.5427 79.0494 24.6659 80.4709 23.5827C81.8925 22.4995 83.111 21.2101 84.1772 19.7143C84.4818 19.2501 84.6849 18.7343 84.888 18.1153C85.0403 17.4964 85.1926 16.8774 85.3449 16.2585C84.1264 17.2901 82.8064 18.3732 81.3848 19.4048C79.9632 20.4364 78.5417 21.5195 77.1709 22.5511C76.9678 22.6543 76.7647 22.7574 76.5108 22.809C76.257 22.8606 76.0539 22.9122 75.8001 22.9122C75.4954 22.9122 75.1908 22.809 74.937 22.6543C74.6831 22.4995 74.5816 22.1901 74.5308 21.829C74.5308 21.2616 74.6324 20.5395 74.7847 19.6627C74.937 18.7859 75.1401 17.909 75.3939 16.9806C75.6478 16.0522 75.9524 15.1753 76.257 14.3501C76.5616 13.5248 76.8662 12.8543 77.1201 12.3385C77.4247 11.8227 77.6786 11.5648 77.8816 11.5132C78.0847 11.5132 78.2878 11.668 78.4401 11.9258C78.5924 12.1837 78.7447 12.4932 78.9478 12.8027C79.1001 13.1638 79.3032 13.4216 79.5063 13.6795C79.7094 13.9374 80.014 14.0922 80.3186 14.0922C81.1817 13.8859 81.791 13.4216 82.2479 12.648C82.7048 11.9258 82.9587 10.9458 82.9587 9.86269C82.9587 8.88269 82.8064 7.95428 82.5017 7.12901C82.1971 6.30375 81.791 5.63321 81.2325 5.11742C80.674 4.60163 80.0648 4.39532 79.4048 4.34374C78.1863 4.34374 77.1201 4.65322 76.2062 5.22059C75.2924 5.78795 74.48 6.56164 73.7693 7.54164C73.0585 8.52164 72.4492 9.65637 71.9415 10.8943C71.4338 12.1322 70.9769 13.4216 70.6215 14.7627C70.2661 16.1037 69.9107 17.3932 69.6569 18.6827C69.3522 19.9722 69.0984 21.1585 68.8953 22.2416C68.743 23.0153 68.4384 23.5827 68.083 23.9953C67.7276 24.408 67.2199 24.5627 66.5599 24.5627C66.4583 24.5627 66.3568 24.5627 66.2045 24.5627C65.8491 24.6658 65.7475 24.6659 65.5952 24.6143ZM48.181 50.3006C48.2826 51.1258 48.4349 51.8995 48.638 52.5701C48.841 53.2922 49.0949 53.8595 49.4503 54.3238C49.8057 54.788 50.3134 55.0459 50.9226 55.0459C51.5826 55.0459 52.1919 54.788 52.8011 54.3753C53.4104 53.9627 53.9688 53.3953 54.5273 52.6732C55.035 52.0027 55.4919 51.229 55.8981 50.4038C56.3043 49.5785 56.6089 48.7532 56.812 47.9795C57.0658 47.2058 57.1674 46.4837 57.1674 45.8648C57.1674 45.7101 57.0658 45.5038 56.9135 45.2974C56.7612 45.0911 56.5581 44.9364 56.4058 44.7816C56.2027 44.6269 56.1012 44.5753 56.0504 44.5753C55.6443 44.7301 55.2889 44.7816 55.035 44.7816C54.7304 44.7816 54.5273 44.6785 54.4258 44.5238C54.3242 44.369 54.2735 44.1627 54.2735 43.8532C54.2735 43.6469 54.3242 43.4406 54.375 43.1827C54.4258 42.9248 54.4765 42.7185 54.5273 42.5122C55.3904 37.0448 56.355 31.5774 57.4212 26.1616C58.4366 20.7459 59.5028 15.2785 60.569 9.81111C60.569 9.14058 60.5182 8.52163 60.4167 7.95426C60.2644 7.3869 60.0613 6.92269 59.7566 6.56164C59.452 6.20059 58.9951 5.94268 58.3859 5.89111C57.8782 5.89111 57.4212 6.09743 57.0658 6.51006C56.7104 6.87111 56.4058 7.3869 56.152 8.05743C55.8981 8.67638 55.695 9.3469 55.5427 10.1206C55.3904 10.8427 55.2381 11.5648 55.1366 12.2869C54.9842 13.009 54.8827 13.628 54.7812 14.1953C53.9688 18.1669 53.1565 22.1385 52.3442 26.1616C51.5319 30.1332 50.7703 34.1564 50.0595 38.1795C49.1964 42.2027 48.638 46.2258 48.181 50.3006ZM42.7994 33.589C42.5455 34.0016 42.2409 34.4658 41.9363 35.0848C41.6317 35.6522 41.327 36.2195 40.9716 36.7353C40.667 37.2511 40.3624 37.7153 40.007 38.0764C39.7024 38.4374 39.3978 38.6437 39.1439 38.6437C39.0424 38.6437 38.8901 38.5922 38.7885 38.489C38.687 38.3859 38.5347 38.2311 38.4839 38.1279C38.3824 37.9732 38.3316 37.8701 38.3316 37.7669C38.3316 37.7153 38.3316 37.7153 38.3824 37.7153L38.4331 37.6637C38.5854 37.2511 38.7377 36.7353 38.9408 36.1164C39.1439 35.4974 39.347 34.8785 39.6008 34.2595C39.8547 33.6406 40.1593 33.1248 40.4639 32.7122C40.7686 32.2995 41.1239 32.0932 41.4793 32.0932C41.6316 32.0932 41.7332 32.1964 41.8855 32.3511C42.0378 32.5059 42.1901 32.7122 42.3424 32.9701C42.4947 33.1248 42.6471 33.3827 42.7994 33.589ZM31.0207 48.1858C31.0714 49.0111 31.173 49.888 31.3253 50.8164C31.4776 51.7448 31.7314 52.6216 32.0868 53.3953C32.4422 54.2206 33.0007 54.8911 33.813 55.4069C34.5746 55.9227 35.6408 56.1806 36.91 56.1806C37.57 56.1806 38.3316 56.0259 39.0931 55.768C39.8547 55.5101 40.6162 55.149 41.327 54.6848C42.0378 54.2206 42.6471 53.6532 43.104 53.0858C43.5609 52.4669 43.8148 51.7964 43.8148 51.0743C43.8148 50.7132 43.7132 50.4553 43.5102 50.3006C43.3071 50.1458 43.0024 50.0427 42.6471 50.0427C42.1901 50.0427 41.7332 50.1458 41.2763 50.249C40.8193 50.3522 40.4132 50.5069 39.9562 50.6101C39.4993 50.7648 39.0931 50.8164 38.6362 50.8164C37.8747 50.8164 37.3669 50.6101 37.0623 50.249C36.7577 49.888 36.6054 49.4753 36.5546 48.9595C36.5038 48.4437 36.5038 47.9795 36.5038 47.5153C36.5038 46.6385 36.7069 45.8648 37.0623 45.2459C37.4177 44.6269 37.8746 44.0595 38.4331 43.5437C38.9916 43.028 39.5501 42.5122 40.1593 41.9964C40.7178 41.4806 41.2255 40.8616 41.6824 40.1911C42.0378 39.6237 42.3932 39.0048 42.7994 38.3343C43.2055 37.6638 43.6117 36.9416 44.0179 36.2195C44.424 35.4974 44.7286 34.7753 44.9825 34.0532C45.2363 33.3311 45.3887 32.7122 45.3887 32.0416C45.3887 31.2164 45.1856 30.4943 44.7794 29.8753C44.424 29.2564 43.9163 28.8438 43.2563 28.5343C42.6471 28.2248 41.9363 28.0701 41.1747 28.0701C40.0578 28.0701 38.9916 28.4311 38.0777 29.0501C37.1131 29.669 36.3008 30.5458 35.5392 31.6806C34.7777 32.7637 34.1176 34.0016 33.5592 35.3943C33.0007 36.7869 32.5438 38.2311 32.1376 39.7269C31.7822 41.2227 31.4776 42.7185 31.2745 44.1627C31.173 45.6069 31.0207 46.948 31.0207 48.1858ZM7.81863 58.8111C8.32633 59.3269 8.8848 59.7395 9.44328 59.9974C10.0017 60.2553 10.611 60.4101 11.2202 60.4101C12.2356 60.4101 13.3018 60.1006 14.4188 59.5332C15.4849 58.9658 16.5511 58.1406 17.6173 57.109C18.6835 56.129 19.6989 54.9427 20.7143 53.6532C21.7297 52.3637 22.6436 50.9711 23.5574 49.5269C24.4205 48.0827 25.2328 46.6385 25.9436 45.1427C26.6544 43.6985 27.2637 42.3058 27.7206 40.9648C27.8729 40.449 28.0252 39.9332 28.1267 39.4174C28.2283 38.9016 28.2791 38.4374 28.2791 37.9216C28.2791 36.8385 28.076 35.7553 27.6698 34.7753C27.2637 33.7437 26.756 32.8153 26.0452 32.0416C25.3344 31.2164 24.5221 30.5459 23.5574 30.0301C22.5928 29.5143 21.5774 29.2048 20.4097 29.0501C19.8004 29.0501 19.3943 28.9469 19.0896 28.7922C18.785 28.6374 18.6835 28.4311 18.6835 28.0701C18.6835 27.6574 18.9373 27.0385 19.3435 26.2648C19.7497 25.4911 20.2574 24.6658 20.8666 23.7374C21.4758 22.809 22.0851 21.8806 22.6943 21.0037C23.3036 20.1269 23.8113 19.3016 24.2174 18.5795C24.7759 17.5995 25.3344 16.6711 25.8421 15.6395C26.3498 14.6595 26.8067 13.628 27.1113 12.5448C27.416 11.5132 27.5683 10.3785 27.5683 9.19217V8.41849C27.5683 8.26375 27.5683 8.05743 27.619 7.9027C27.619 7.74796 27.6698 7.54164 27.6698 7.38691C27.6698 5.78796 27.3652 4.49848 26.756 3.36374C26.1467 2.28058 25.3344 1.45533 24.2682 0.887957C23.202 0.320588 21.9835 0.0111084 20.562 0.0111084C18.6327 0.0111084 16.7034 0.320592 14.7234 0.939539C12.7433 1.55849 10.8648 2.38374 9.03712 3.36374C7.20938 4.39532 5.53396 5.53006 4.01086 6.71637C2.48775 7.95427 1.21849 9.19217 0.203082 10.4816C0.101541 10.5848 0.0507703 10.7395 0 10.8943C0 11.049 0 11.2553 0 11.4101C0 11.6164 -7.7545e-07 11.8743 0.0507695 12.1322C0.0507695 12.3901 0.101539 12.648 0.101539 12.9058C0.456931 12.7511 0.812324 12.6479 1.06618 12.5964C1.32003 12.5448 1.62465 12.4416 1.92927 12.3385C2.2339 12.1837 2.64006 11.8743 3.09699 11.4616C4.16316 10.4301 5.33088 9.39849 6.70168 8.41849C8.02171 7.38691 9.44328 6.45847 10.9156 5.63321C12.388 4.80795 13.9111 4.13742 15.4342 3.62163C16.9573 3.10585 18.4296 2.84795 19.8512 2.84795C21.3743 2.84795 22.5928 3.31216 23.4559 4.13742C24.319 4.96269 24.7759 6.14901 24.7759 7.59322C24.7759 7.95427 24.7251 8.36691 24.6744 8.88269C24.6236 9.39848 24.5221 9.86269 24.3697 10.2753C24.2174 10.7395 24.0651 11.049 23.862 11.3069C22.1866 14.2985 20.4604 17.2901 18.785 20.2301C17.0588 23.2216 15.3326 26.2132 13.6064 29.1532C13.3018 29.6174 12.8957 30.1332 12.388 30.7006C11.8803 31.2164 11.3726 31.7322 10.8141 32.0932C10.2556 32.5059 9.79867 32.7122 9.44328 32.7122C9.08788 32.7122 8.83403 32.609 8.68172 32.3511C8.52941 32.1448 8.47864 31.8353 8.47864 31.4227C8.47864 31.3711 8.47864 31.268 8.47864 31.268C8.47864 31.2164 8.47864 31.1648 8.52941 31.1132C8.78326 29.4111 9.13865 27.709 9.49405 25.9553C9.90021 24.2016 10.2048 22.448 10.5095 20.7459C10.8141 18.9922 10.9664 17.2901 10.9664 15.6395C10.9664 15.1238 10.8648 14.7111 10.7125 14.3501C10.5602 13.989 10.2048 13.7311 9.7479 13.5248C9.29096 13.3701 8.63095 13.2669 7.81863 13.2669C7.10784 13.2669 6.54937 13.4732 6.09244 13.9374C5.6355 14.3501 5.22934 14.969 4.97549 15.6911C4.67087 16.4648 4.46779 17.2901 4.31548 18.3216C3.60469 22.1901 2.94468 26.1101 2.28466 29.9785C1.62465 33.8469 0.964637 37.7153 0.406164 41.6353C0.253853 42.6669 0.203082 43.7501 0.203082 44.7816C0.203082 45.7101 0.25385 46.5869 0.355391 47.4637C0.456931 48.3406 0.558475 49.2174 0.660016 50.0427C0.710786 50.3522 0.863094 50.6616 1.06618 50.9711C1.26926 51.2806 1.52311 51.5901 1.82773 51.8995C2.13235 52.209 2.3862 52.5185 2.64005 52.8279C2.99545 52.4153 3.35084 52.1059 3.757 51.7448C4.1124 51.3838 4.41702 50.9711 4.72164 50.5585C4.97549 50.0943 5.17857 49.5269 5.33088 48.8564C5.53396 47.4637 5.83858 46.0711 6.19398 44.7301C6.54937 43.389 7.10784 42.1511 7.8694 41.0164C8.63095 39.8816 9.64636 38.9016 10.9664 38.0248L11.5249 37.4058C11.9818 36.6837 12.591 36.0132 13.3018 35.4459C14.0126 34.8269 14.7742 34.3111 15.5865 33.8985C16.3988 33.4343 17.2111 33.1248 18.0235 32.8669C18.8358 32.6606 19.5973 32.5058 20.3589 32.5058C21.0697 32.5058 21.7297 32.7638 22.2882 33.1764C22.8466 33.589 23.3036 34.1564 23.659 34.8269C24.0144 35.4974 24.1667 36.1679 24.1667 36.8385C24.1667 37.0964 24.1667 37.4058 24.1159 37.6637C24.0651 37.9216 24.0144 38.2311 23.9128 38.489C23.3543 40.3974 22.6436 42.1511 21.7805 43.8532C20.8666 45.5553 19.8512 47.2058 18.7342 48.7532C17.6173 50.3006 16.3988 51.8479 15.1803 53.3437C14.9265 53.6532 14.6726 53.9111 14.4188 54.2206C14.1649 54.5301 13.8603 54.788 13.5557 54.9943C13.251 55.2006 12.8957 55.3037 12.591 55.3037C12.0833 55.3037 11.6264 55.0974 11.3218 54.788C11.0172 54.4785 10.7633 54.1174 10.5602 53.6532C10.3571 53.2406 10.2048 52.8795 10.0525 52.5185C9.90021 52.209 9.69713 52.0543 9.54482 52.0027C9.18943 52.0027 8.83403 52.209 8.47864 52.5185C8.12325 52.8795 7.81863 53.2922 7.56478 53.808C7.31093 54.3238 7.20938 54.8911 7.15861 55.4585C7.15861 55.8711 7.20938 56.3353 7.36169 56.8511C7.31092 57.6248 7.51401 58.1922 7.81863 58.8111Z" fill="#292223"/>
</svg>
