<svg width="60" height="60" viewBox="0 0 60 60" fill="none" xmlns="http://www.w3.org/2000/svg">
<path d="M16.8418 42.3192C16.5946 42.4788 16.3618 42.6603 16.1461 42.8614C14.8699 44.05 14.1958 45.9085 14.1435 48.3838C14.1393 48.5795 14.209 48.7694 14.3383 48.9146C14.4676 49.0598 14.6467 49.1492 14.8388 49.1646C14.8713 49.1671 15.0558 49.1807 15.3438 49.1807C16.4477 49.1807 19.0688 48.981 20.4556 47.1975C21.1645 46.286 21.4375 45.126 21.2774 43.7379C23.0907 44.8095 24.2348 45.8089 24.8836 46.4717C24.4667 48.1739 23.9307 50.01 23.2439 51.977C23.2108 52.0719 23.1964 52.1725 23.2016 52.2731C23.2067 52.3736 23.2313 52.4722 23.2739 52.5631C23.3165 52.6539 23.3764 52.7354 23.45 52.8028C23.5236 52.8702 23.6096 52.9222 23.703 52.9559C23.7965 52.9896 23.8955 53.0042 23.9945 52.999C24.0935 52.9937 24.1905 52.9688 24.2799 52.9255C24.3694 52.8822 24.4496 52.8214 24.516 52.7466C24.5824 52.6718 24.6336 52.5845 24.6667 52.4896C26.5707 47.0365 27.362 42.5268 27.6221 39.0609C29.0747 38.0145 30.5059 37.3497 31.9157 37.0666C31.6061 37.9685 31.3685 39.1767 31.5891 40.4139C31.9954 42.6957 33.7419 43.8977 35.1356 44.5045C35.2977 44.5751 35.4789 44.5857 35.648 44.5347C35.817 44.4837 35.9631 44.3742 36.0609 44.2251C36.9889 42.8112 37.3192 41.3863 37.043 39.9903C36.8952 39.2427 36.5156 38.2584 35.606 37.2206C35.9283 37.3162 36.2447 37.4314 36.5533 37.5656C38.0282 38.7821 39.4352 39.193 40.6603 39.193C41.4995 39.1868 42.3283 39.004 43.0945 38.6563C44.1355 38.182 45.066 37.4894 45.8251 36.6241C45.8945 36.5396 45.9451 36.4408 45.9735 36.3345C46.002 36.2283 46.0076 36.117 45.9899 36.0084C45.9722 35.8998 45.9318 35.7963 45.8712 35.7049C45.8106 35.6136 45.7314 35.5366 45.6389 35.4792C42.0915 33.2757 39.6994 33.6876 38.3176 34.4211C37.636 34.7817 37.0477 35.3004 36.6005 35.9353C36.1268 35.761 35.6404 35.625 35.1456 35.5286C36.3925 34.3168 36.8721 33.1378 37.0431 32.2756C37.3193 30.8796 36.989 29.4547 36.061 28.0408C35.9632 27.8917 35.8171 27.7822 35.6481 27.7312C35.479 27.6801 35.2978 27.6908 35.1357 27.7614C33.742 28.3681 31.9955 29.5702 31.5892 31.8519C31.3451 33.2224 31.6623 34.5562 32.0175 35.4785C30.598 35.7046 29.1649 36.2654 27.7181 37.1611C27.7395 36.298 27.7276 35.5191 27.6951 34.8281C27.5819 32.4242 27.1907 30.4274 26.7356 29.1767C29.3915 28.9351 31.3285 27.9073 32.5027 26.1111C33.7606 24.1867 34.085 21.4809 33.467 18.0691C33.196 16.5907 32.7899 15.1412 32.254 13.7394C32.2132 11.9379 31.48 10.2241 30.2113 8.96464C28.9426 7.70516 27.239 7 25.465 7C23.691 7 21.9874 7.70516 20.7186 8.96464C19.4499 10.2241 18.7167 11.9379 18.676 13.7394C18.14 15.1412 17.7339 16.5907 17.463 18.0691C16.8449 21.4808 17.1693 24.1867 18.4273 26.1111C19.7344 28.1107 21.9865 29.1587 25.1241 29.2287C25.4202 29.8554 26.091 31.8158 26.2045 35.3349C26.2759 37.5517 26.1206 40.7188 25.2765 44.7459C24.3674 43.934 22.989 42.8924 21.0189 41.8414C21.1395 40.8712 21.1909 38.923 20.0488 37.2546C19.0258 35.7601 17.321 34.8683 14.9815 34.6044C14.7965 34.5834 14.6104 34.6326 14.459 34.7425C14.3076 34.8525 14.2015 35.0155 14.1613 35.2001C14.1303 35.342 13.422 38.7017 15.2419 41.0062C15.6767 41.555 16.2222 42.0028 16.8418 42.3192ZM39.5157 35.5642C40.7371 35.1475 42.2713 35.4013 43.9918 36.2963C43.5247 36.6943 43.004 37.0226 42.4455 37.2711C40.9132 37.9355 39.3942 37.7419 37.9218 36.6969C38.3351 36.1717 38.8885 35.7785 39.5158 35.5642H39.5157ZM33.1622 31.7492C33.4358 30.8079 34.0996 30.0408 35.1384 29.4626C35.5798 30.3258 35.7226 31.1684 35.563 31.9734C35.412 32.7342 34.915 33.8417 33.4458 34.9923C33.1449 34.2207 32.8147 32.9437 33.1623 31.7492H33.1622ZM33.446 37.2737C34.9152 38.4245 35.4127 39.532 35.5632 40.2925C35.7226 41.0982 35.5798 41.9409 35.1386 42.8034C34.0998 42.2251 33.436 41.4581 33.1624 40.5168C32.8147 39.3229 33.1449 38.0459 33.4461 37.2737H33.446ZM31.2437 25.2656C30.7324 26.0468 30.0116 26.64 29.0913 27.0462C28.6814 24.0933 27.4773 22.0687 26.3004 20.7456C27.448 20.5994 28.54 20.1586 29.4734 19.4649C30.4068 18.7712 31.1509 17.8473 31.6353 16.7805C32.2691 19.234 32.7982 22.89 31.2437 25.2656ZM25.4651 8.53272C26.2228 8.53213 26.9718 8.69724 27.6612 9.01685C28.3506 9.33645 28.9641 9.80305 29.4601 10.3849C29.9562 10.9668 30.3231 11.6504 30.5359 12.3891C30.7488 13.1278 30.8026 13.9044 30.6937 14.6662C30.5107 13.3896 29.8819 12.2225 28.9219 11.378C27.962 10.5334 26.735 10.0678 25.4651 10.0661C24.4642 10.0661 23.5043 10.47 22.7965 11.1889C22.0888 11.9078 21.6912 12.8828 21.6912 13.8995C21.6912 14.9162 22.0888 15.8912 22.7965 16.6101C23.5043 17.329 24.4642 17.7329 25.4651 17.7329C26.0656 17.7329 26.6415 17.4906 27.0662 17.0592C27.4908 16.6279 27.7294 16.0429 27.7294 15.4329C27.7294 14.8228 27.4908 14.2378 27.0662 13.8065C26.6415 13.3751 26.0656 13.1328 25.4651 13.1328C25.2649 13.1328 25.0729 13.2136 24.9314 13.3574C24.7898 13.5011 24.7103 13.6962 24.7103 13.8995C24.7103 14.1028 24.7898 14.2978 24.9314 14.4416C25.0729 14.5854 25.2649 14.6662 25.4651 14.6662C25.6652 14.6662 25.8572 14.747 25.9988 14.8907C26.1403 15.0345 26.2198 15.2295 26.2198 15.4329C26.2198 15.6362 26.1403 15.8312 25.9988 15.975C25.8572 16.1188 25.6652 16.1995 25.4651 16.1995C24.8645 16.1995 24.2886 15.9572 23.8639 15.5259C23.4393 15.0945 23.2007 14.5095 23.2007 13.8995C23.2007 13.2895 23.4393 12.7045 23.8639 12.2731C24.2886 11.8418 24.8645 11.5994 25.4651 11.5994C26.4494 11.599 27.395 11.9893 28.1001 12.687C28.8052 13.3848 29.214 14.3347 29.2393 15.3343C29.2646 16.3339 28.9044 17.3039 28.2356 18.0376C27.5667 18.7712 26.6421 19.2103 25.659 19.2613C25.5945 19.2637 25.5301 19.2663 25.4651 19.2663C24.0638 19.2663 22.72 18.7008 21.7291 17.6944C20.7383 16.6879 20.1816 15.3229 20.1816 13.8995C20.1816 12.4761 20.7383 11.1111 21.7291 10.1046C22.72 9.09815 24.0638 8.53272 25.4651 8.53272ZM25.4651 27.6998C22.6877 27.6998 20.7434 26.8808 19.6864 25.2656C18.1319 22.8901 18.6611 19.234 19.2949 16.7805C19.7301 17.7377 20.3747 18.5813 21.1795 19.247C21.9844 19.9128 22.9283 20.383 23.9393 20.622C25.1915 21.5694 27.1619 23.6425 27.6269 27.4996C26.9145 27.6378 26.1904 27.7049 25.4651 27.6998ZM19.2737 46.2439C18.6458 47.0542 17.5398 47.3913 16.7226 47.5314C16.3824 47.5889 16.0389 47.6248 15.6942 47.6389C15.838 45.9936 16.3317 44.7687 17.166 43.9916C17.9749 43.2384 18.9627 43.0544 19.6133 43.026C19.9655 44.4172 19.8519 45.498 19.2737 46.2439ZM15.5406 36.2387C17.045 36.5284 18.1406 37.1599 18.8028 38.1207C19.6006 39.2784 19.6134 40.6891 19.5387 41.4765C18.134 41.3678 17.0879 40.8903 16.4237 40.0529C15.4812 38.8639 15.4605 37.1792 15.5406 36.2387Z" fill="#292223" stroke="#292223" stroke-width="0.5"/>
</svg>
