<svg width="60" height="60" viewBox="0 0 60 60" fill="none" xmlns="http://www.w3.org/2000/svg">
<circle cx="27" cy="33" r="20" fill="#FFE2E8"/>
<path d="M53.0783 21.2658C52.1304 20.082 50.9175 19.1934 49.5747 18.6824C49.985 17.8328 50.2002 16.9037 50.2002 15.9369C50.2002 12.8968 47.7734 10.4108 44.7479 10.2993C43.5874 6.93724 39.7919 5.63439 36.901 6.91092C36.8366 6.83822 35.3136 5 32.5848 5C31.0304 5 29.569 5.60281 28.4698 6.6976C27.0671 8.09469 26.1634 10.1186 26.3131 12.458C25.8652 12.386 25.425 12.6457 25.2413 13.045L20.5867 23.6543C19.8678 25.2939 19.4091 27.0278 19.2256 28.8083L18.6888 34.015C17.9829 33.0688 17.0034 32.6849 16.0405 32.7363C15.057 32.7884 14.1415 33.2974 13.6291 34.1218C13.0782 35.008 12.9715 36.271 13.6751 37.3707L11.6102 38.5843C10.3153 39.3452 9.12363 40.2719 8.06847 41.3386L5.95645 43.4734C5.08625 44.3529 4.78113 45.6261 5.16004 46.7958C6.44165 50.7516 9.14627 53.4405 13.187 54.8217C14.5195 55.2772 15.8383 54.8031 16.5824 54.0367L18.7313 51.9124C19.7844 50.8714 20.7006 49.6979 21.4544 48.4246L22.6486 46.4076C23.757 47.0791 24.9918 46.9395 25.9376 46.2794C26.7748 45.6951 27.2235 44.8248 27.254 43.9021C27.2833 43.0167 26.9388 42.15 25.9711 41.3611C25.9711 41.3611 31.7212 40.7533 31.938 40.7384C33.167 40.6536 33.0294 38.6765 31.8004 38.7613C31.7537 38.7644 25.3131 39.4316 25.3131 39.4316C24.7158 39.4838 23.8378 39.3973 23.0536 38.6321L21.4203 37.0054C20.7065 36.2642 20.5536 35.4857 20.6176 34.755L21.2099 29.0109C21.3725 27.4349 21.7773 25.9006 22.4145 24.4496L23.8204 21.2448C25.1895 23.7942 26.996 26.0559 29.1082 28.0526C32.6608 31.4108 37.7333 33.8711 42.6602 34.5951C42.4128 34.7029 39.8134 35.8344 39.8134 35.8344C38.6139 36.3565 39.4126 38.1768 40.6121 37.6548L46.9238 34.907C51.3798 34.809 54.9833 31.1768 54.9999 26.7123C55.0073 24.7569 54.3249 22.8226 53.0783 21.2658ZM24.8674 43.0405C25.4059 43.5107 25.415 44.2207 24.7422 44.6898C24.0693 45.1588 23.2298 44.5966 23.1715 43.9374L22.8549 41.2445C23.4829 41.8323 24.1617 42.4242 24.8674 43.0405ZM15.3065 35.196C15.6619 34.6218 16.5459 34.5473 16.991 35.0885C17.5573 35.7773 18.1426 36.4656 18.7603 37.1345L16.0378 36.7584C15.3172 36.6519 14.9666 35.7453 15.3065 35.196ZM20.8898 41.5575L21.2807 44.8077L19.7367 47.4158C19.0695 48.5428 18.2586 49.5814 17.3266 50.5027L15.1777 52.627C14.8247 52.976 14.2952 53.0993 13.8292 52.9413C10.3657 51.7683 8.15083 49.5586 7.05818 46.1861C6.90821 45.7232 7.03046 45.218 7.37726 44.8675L9.48918 42.7327C10.4232 41.7886 11.4778 40.9684 12.6239 40.2949L15.3765 38.6771L18.5581 39.1136L11.7977 43.0864C11.3235 43.3652 11.1659 43.974 11.4457 44.4464C11.7256 44.9188 12.3371 45.0758 12.8112 44.7969L18.7085 41.3312L15.2301 47.2067C14.9505 47.6792 15.1074 48.2895 15.5826 48.5665C16.0376 48.8318 16.668 48.6972 16.948 48.2155L20.8898 41.5575ZM37.6903 15.7409C38.4517 14.2776 38.5605 12.5297 37.9362 10.9609C38.107 10.2034 38.0839 9.41104 37.8667 8.66314C39.6684 7.97403 41.8889 8.74964 42.7479 10.6645C41.1548 11.3545 40.038 12.9372 40.038 14.7749C40.038 16.7642 41.663 18.3827 43.6605 18.3827C45.2961 18.3827 46.6268 17.0574 46.6268 15.4285C46.6268 14.8801 46.1803 14.4354 45.6296 14.4354C45.0789 14.4354 44.6325 14.8801 44.6325 15.4285C44.6325 15.9623 44.1964 16.3965 43.6605 16.3965C42.7627 16.3965 42.0323 15.6691 42.0323 14.7749C42.0323 13.4 43.1553 12.2816 44.5357 12.2816C46.5594 12.2816 48.2059 13.9214 48.2059 15.937C48.2059 18.8197 45.5205 20.6477 42.9178 20.7886C42.0575 20.1835 41.0521 19.8251 39.9906 19.7501C38.1647 19.5034 36.944 17.5248 37.6903 15.7409ZM29.88 8.10204C31.1082 6.83743 33.5807 6.42966 35.2896 8.10204C36.3199 9.11033 36.311 10.7745 35.2896 11.7917C34.6207 12.4576 33.5323 12.4579 32.8636 11.7917C32.459 11.3889 32.459 10.7335 32.8636 10.3307C33.253 9.94285 33.253 9.31402 32.8636 8.92611C32.4742 8.53841 31.8428 8.53841 31.4533 8.92611C30.2713 10.1033 30.2713 12.0189 31.4533 13.1961C32.7796 14.5169 34.8685 14.6267 36.3213 13.5253C36.2235 14.3502 35.8542 15.1403 35.2383 15.7537C33.7611 17.225 31.3396 17.2425 29.8798 15.7537C27.5916 13.4198 27.926 10.1138 29.88 8.10204ZM24.8645 18.8644L26.5546 15.0122C28.0225 16.4568 29.1502 18.203 29.5391 20.244C29.8143 21.6958 30.2281 23.1278 30.7695 24.5003C31.3159 25.8876 32 27.2303 32.8007 28.4896C29.3486 26.0326 26.6045 22.7048 24.8645 18.8644ZM31.4984 19.8754C31.4224 19.4722 31.3249 19.076 31.2068 18.6879C32.6963 19.0324 34.3028 18.8017 35.6068 17.9834C35.7849 18.8283 36.3612 19.8096 36.9459 20.3547C36.4017 20.629 35.8988 20.9909 35.4551 21.4328C34.3407 22.5428 33.6241 23.9432 33.3766 25.4628C32.5024 23.7062 31.8691 21.83 31.4984 19.8754ZM42.2236 30.4891C40.7464 31.9604 38.3425 31.9604 36.8651 30.4891C35.839 29.4672 35.2738 28.1084 35.2738 26.6632C35.2738 25.2181 35.839 23.8592 36.8651 22.8373C38.3842 21.3243 40.8693 21.4159 42.2746 22.8373C43.2881 23.8624 43.2838 25.4977 42.2746 26.527C41.6557 27.1582 40.5605 27.2399 39.8487 26.527C39.49 26.1677 39.4073 25.5148 39.8487 25.066C40.234 24.6743 40.238 24.0494 39.8487 23.6615C39.4593 23.2738 38.8279 23.2738 38.4384 23.6615C37.2564 24.8387 37.2569 26.7537 38.4384 27.9314C40.0909 29.5785 42.3617 29.053 43.3064 28.2611C43.2086 29.0858 42.8395 29.8758 42.2236 30.4891ZM51.2558 30.9897C50.1061 32.1805 48.4893 32.9228 46.7106 32.9228C45.3791 32.9228 44.0641 32.8159 42.7718 32.6033C43.508 32.1405 44.2904 31.2383 44.6021 30.6155C45.792 31.6271 47.5878 31.5729 48.7126 30.4528C49.102 30.065 49.102 29.4362 48.7126 29.0483C48.3233 28.6606 47.686 28.6548 47.3024 29.0483C46.9246 29.4359 46.2552 29.4635 45.8354 29.0483C45.1732 28.3931 45.1684 27.2831 45.8354 26.6322C46.3532 26.1269 47.4389 25.6952 48.5498 25.5711C49.6479 25.4483 50.6263 25.6367 51.042 26.0509C52.4689 27.472 52.5398 29.504 51.2558 30.9897ZM48.3277 23.5975C47.0661 23.7383 45.8911 24.1479 45.036 24.7289C45.0362 24.7133 45.0363 24.6977 45.0363 24.6821C45.0363 23.9295 44.8559 23.2047 44.5154 22.5564C45.913 22.2488 47.3926 21.4415 48.3894 20.3813C50.4988 20.98 52.1926 22.8066 52.7818 24.9991C51.7861 23.7428 50.0695 23.4026 48.3277 23.5975ZM37.0985 38.5342C37.0985 39.0829 36.6519 39.5277 36.101 39.5277C35.55 39.5277 35.1034 39.0829 35.1034 38.5342C35.1034 37.9856 35.55 37.5407 36.101 37.5407C36.6519 37.5407 37.0985 37.9856 37.0985 38.5342Z" fill="#292223"/>
</svg>
