<svg width="60" height="60" viewBox="0 0 60 60" fill="none" xmlns="http://www.w3.org/2000/svg">
<circle cx="32" cy="30" r="20" fill="#FFE2E8"/>
<g clip-path="url(#clip0)">
<path d="M30.1565 47C27.9023 47 25.629 46.0879 23.9194 44.4974C22.1321 42.8346 21.1477 40.6561 21.1477 38.3632C21.1477 33.3587 25.3163 29.7264 31.0598 29.7264C33.3258 29.7264 35.1894 30.6353 36.4485 32.3544C37.561 33.8732 38.149 35.9509 38.149 38.3632C38.149 43.2871 34.713 47 30.1565 47ZM28.6058 45.0415C29.1089 45.1542 29.6282 45.2141 30.1565 45.2141C31.9101 45.2141 33.5028 44.5124 34.6412 43.2387C35.7698 41.9758 36.3913 40.2442 36.3913 38.3633C36.3913 37.9714 36.3759 37.6018 36.3465 37.2531C34.9265 40.1117 32.0515 42.4235 28.2915 42.5867C28.3535 43.4018 28.4566 44.2246 28.6058 45.0415ZM28.2563 31.8677C27.0233 32.203 25.9429 32.7717 25.0608 33.5586C23.6709 34.7985 22.9054 36.5048 22.9054 38.3633C22.9054 40.8531 24.4826 43.1344 26.7115 44.3329C26.3856 41.9841 26.3752 39.4956 26.6906 37.1792C26.9858 35.0109 27.5314 33.1724 28.2563 31.8677ZM28.317 38.4428C28.2489 39.2011 28.2145 39.9931 28.2189 40.8032C30.1922 40.7224 31.776 39.9424 32.9604 38.8541C32.7776 38.4086 32.5593 37.9788 32.3172 37.5735L28.317 38.4428ZM29.7717 32.7704C31.4876 33.4461 33.1912 35.3556 34.2193 37.3807C34.9259 36.325 35.3563 35.1685 35.5048 34.1333C34.2317 31.7586 31.9419 31.5125 31.0598 31.5125C30.731 31.5125 30.3899 31.8772 30.2159 32.0947C30.0618 32.2874 29.9133 32.5137 29.7717 32.7704ZM29.0849 34.4168C28.8793 35.0596 28.7036 35.782 28.5652 36.5625L31.1592 35.9988C30.4569 35.2178 29.7097 34.6507 29.0849 34.4168ZM50.6774 43.9879C47.0556 43.9879 44.5568 43.1631 42.8137 41.392C41.0705 39.6209 40.2585 37.0822 40.2585 33.4024C40.2585 32.9091 40.652 32.5094 41.1374 32.5094C44.7592 32.5094 47.258 33.3343 49.0012 35.1054C50.7443 36.8767 51.5562 39.4153 51.5562 43.095C51.5563 43.5882 51.1628 43.9879 50.6774 43.9879ZM42.0356 34.3148C42.152 36.9936 42.8024 38.8549 44.0567 40.1291C45.3109 41.4034 47.1428 42.0642 49.7794 42.1826C49.6629 39.5039 49.0125 37.6426 47.7583 36.3681C46.5041 35.0939 44.672 34.4331 42.0356 34.3148ZM9.32246 43.9879C8.83707 43.9879 8.44356 43.5882 8.44356 43.095C8.44356 39.4153 9.25543 36.8764 10.9987 35.1054C12.7419 33.3342 15.2407 32.5093 18.8625 32.5093C19.3478 32.5093 19.7414 32.909 19.7414 33.4023C19.7414 37.082 18.9295 39.6208 17.1863 41.3919C15.4429 43.1632 12.9443 43.9879 9.32246 43.9879ZM17.9643 34.3148C15.3277 34.4331 13.4959 35.0939 12.2416 36.3683C10.9873 37.6426 10.337 39.5039 10.2205 42.1826C12.8569 42.0642 14.6889 41.4034 15.9432 40.1291C17.1975 38.8549 17.8478 36.9936 17.9643 34.3148ZM52.3754 33.9143C49.9101 33.9143 47.569 32.7023 45.0081 30.1003C44.6649 29.7516 44.6649 29.1863 45.0081 28.8376C47.5691 26.2356 49.9101 25.0237 52.3754 25.0237C52.8607 25.0237 53.2543 25.4234 53.2543 25.9167C53.2543 26.4099 52.8607 26.8096 52.3754 26.8096C50.6016 26.8096 48.8461 27.6586 46.8995 29.469C48.8461 31.2795 50.6015 32.1284 52.3754 32.1284C54.1491 32.1284 55.9044 31.2795 57.851 29.469C56.9175 28.6009 56.0329 27.9593 55.1637 27.5183C54.7294 27.2978 54.5533 26.7617 54.7701 26.3203C54.9871 25.8792 55.5148 25.7003 55.9491 25.9205C57.1891 26.5497 58.43 27.5039 59.7426 28.8375C60.0858 29.1864 60.0858 29.7517 59.7426 30.1003C57.1816 32.7023 54.8405 33.9143 52.3754 33.9143ZM7.62465 33.9143C5.15938 33.9143 2.81844 32.7023 0.257431 30.1004C-0.0858105 29.7516 -0.0858105 29.1863 0.257431 28.8375C2.81844 26.2355 5.1595 25.0237 7.62465 25.0237C10.0899 25.0237 12.4309 26.2356 14.9919 28.8376C15.3351 29.1864 15.3351 29.7517 14.9919 30.1003C12.4309 32.7023 10.0899 33.9143 7.62465 33.9143ZM2.14895 29.4689C4.09555 31.2794 5.85102 32.1283 7.62477 32.1283C9.39852 32.1283 11.1539 31.2794 13.1005 29.4689C11.1539 27.6584 9.39852 26.8095 7.62477 26.8095C5.85102 26.8095 4.09555 27.6584 2.14895 29.4689ZM41.179 21.3408C41.1981 22.7371 41.1642 24.3012 40.9307 25.9164C40.8366 26.5673 40.6512 27.3295 40.2909 28.0055C43.2312 27.1031 44.272 23.5999 44.64 21.1883C43.7415 21.4062 42.5813 21.3845 41.179 21.3408ZM30.8396 21.9547C30.8396 19.0555 32.359 16.7925 35.2337 15.4099C37.9537 14.1017 40.9844 14 41.8484 14C43.3089 14 44.3248 14.8419 45.0467 15.5752C45.7686 16.3086 46.5971 17.3408 46.5971 18.8247C46.5971 19.7026 46.497 22.7817 45.2095 25.5453C43.8487 28.4659 41.6212 30.0097 38.7678 30.0097C34.6209 30.0098 30.8396 26.8124 30.8396 21.9547ZM36.4108 27.7477C36.9591 27.9707 37.6143 28.1134 38.1156 27.8447C38.7963 27.4796 39.0763 26.4534 39.1915 25.6569C39.4974 23.5412 39.4362 21.545 39.3823 19.7837C39.3349 18.2344 39.2959 16.9619 39.5239 15.9905C36.7797 16.4228 32.5993 17.7687 32.5993 21.9547C32.5993 24.5632 34.1753 26.8046 36.4108 27.7477ZM41.1339 19.5526C42.7184 19.6025 44.3117 19.6378 44.7271 19.2284C44.7584 19.1977 44.8413 19.1161 44.8413 18.8247C44.8413 18.1697 44.5315 17.5756 43.8057 16.8381C43.0798 16.1006 42.495 15.7859 41.8504 15.7859C41.8498 15.7859 41.8491 15.7859 41.8484 15.7859C41.5633 15.7863 41.4833 15.8702 41.453 15.9019C41.0502 16.3241 41.0852 17.9429 41.1339 19.5526ZM21.2302 30.0098C18.3767 30.0098 16.1493 28.466 14.7886 25.5454C13.501 22.7819 13.4009 19.7026 13.4009 18.8248C13.4009 17.3408 14.2296 16.3086 14.9513 15.5753C15.6731 14.8419 16.689 14 18.1496 14C19.0728 14 22.3018 14.1135 25.0908 15.5738C25.5223 15.7996 25.6919 16.3383 25.4695 16.7767C25.2472 17.2151 24.7171 17.3875 24.2855 17.1614C23.1199 16.551 21.749 16.1771 20.4725 15.9762C20.7043 16.9495 20.6651 18.2267 20.6175 19.7837C20.5635 21.545 20.5025 23.5415 20.8082 25.657C20.9233 26.4535 21.2035 27.4797 21.8841 27.8448C22.3855 28.1136 23.0405 27.971 23.5887 27.748C25.8242 26.8049 27.4005 24.5633 27.4005 21.9548C27.4005 20.8918 27.134 19.949 26.6085 19.1522C26.3383 18.7426 26.4461 18.1878 26.8494 17.9134C27.2527 17.6386 27.7986 17.7483 28.0688 18.1582C28.7917 19.2543 29.1583 20.5317 29.1583 21.955C29.1584 26.168 26.0114 30.0098 21.2302 30.0098ZM15.3598 21.1884C15.7279 23.5999 16.7687 27.1031 19.709 28.0055C19.3487 27.3295 19.1633 26.5673 19.0692 25.9164C18.8356 24.3012 18.8018 22.7371 18.8207 21.3408C17.4187 21.3845 16.2585 21.4061 15.3598 21.1884ZM15.1586 18.8248C15.1586 19.1161 15.2416 19.1978 15.2728 19.2285C15.6883 19.6379 17.2817 19.6028 18.866 19.5527C18.9148 17.943 18.9496 16.3242 18.5469 15.902C18.5166 15.8702 18.4362 15.7861 18.1495 15.7861C17.5048 15.7861 16.9201 16.1007 16.1942 16.8382C15.4684 17.5756 15.1586 18.1698 15.1586 18.8248Z" fill="#292223" stroke="#292223" stroke-width="0.3"/>
</g>
<defs>
<clipPath id="clip0">
<rect width="60" height="60" fill="white"/>
</clipPath>
</defs>
</svg>
